<svg xmlns="http://www.w3.org/2000/svg" xmlns:xlink="http://www.w3.org/1999/xlink" width="172" zoomAndPan="magnify" viewBox="0 0 129 129.750003" height="173" preserveAspectRatio="xMidYMid meet" version="1.0"><defs><g/><clipPath id="c4c08e9e19"><path d="M 8.269531 8.363281 L 120.554688 8.363281 L 120.554688 120.648438 L 8.269531 120.648438 Z M 8.269531 8.363281 " clip-rule="nonzero"/></clipPath><clipPath id="d59a0acf83"><path d="M 64.410156 8.363281 C 33.40625 8.363281 8.269531 33.5 8.269531 64.503906 C 8.269531 95.511719 33.40625 120.648438 64.410156 120.648438 C 95.417969 120.648438 120.554688 95.511719 120.554688 64.503906 C 120.554688 33.5 95.417969 8.363281 64.410156 8.363281 Z M 64.410156 8.363281 " clip-rule="nonzero"/></clipPath><clipPath id="ce4bc6deef"><path d="M 0.269531 0.363281 L 112.554688 0.363281 L 112.554688 112.648438 L 0.269531 112.648438 Z M 0.269531 0.363281 " clip-rule="nonzero"/></clipPath><clipPath id="6d0a7939ef"><path d="M 56.410156 0.363281 C 25.40625 0.363281 0.269531 25.5 0.269531 56.503906 C 0.269531 87.511719 25.40625 112.648438 56.410156 112.648438 C 87.417969 112.648438 112.554688 87.511719 112.554688 56.503906 C 112.554688 25.5 87.417969 0.363281 56.410156 0.363281 Z M 56.410156 0.363281 " clip-rule="nonzero"/></clipPath><clipPath id="a9b4ef1360"><rect x="0" width="113" y="0" height="113"/></clipPath><clipPath id="365f0d2107"><rect x="0" width="46" y="0" height="97"/></clipPath></defs><g clip-path="url(#c4c08e9e19)"><g clip-path="url(#d59a0acf83)"><g transform="matrix(1, 0, 0, 1, 8, 8)"><g clip-path="url(#a9b4ef1360)"><g clip-path="url(#ce4bc6deef)"><g clip-path="url(#6d0a7939ef)"><path fill="#ebb02d" d="M 0.269531 0.363281 L 112.554688 0.363281 L 112.554688 112.648438 L 0.269531 112.648438 Z M 0.269531 0.363281 " fill-opacity="1" fill-rule="nonzero"/></g></g></g></g></g></g><g transform="matrix(1, 0, 0, 1, 40, 13)"><g clip-path="url(#365f0d2107)"><g fill="#ffffff" fill-opacity="1"><g transform="translate(3.765419, 77.036986)"><g><path d="M 8.578125 -10.796875 C 9.035156 -10.796875 9.53125 -10.71875 10.0625 -10.5625 C 10.601562 -10.414062 11.207031 -10.113281 11.875 -9.65625 C 12.738281 -8.988281 13.769531 -8.398438 14.96875 -7.890625 C 16.175781 -7.378906 17.566406 -7.125 19.140625 -7.125 C 20.722656 -7.125 22.21875 -7.519531 23.625 -8.3125 C 25.03125 -9.101562 26.191406 -10.222656 27.109375 -11.671875 C 28.035156 -13.128906 28.5 -14.878906 28.5 -16.921875 C 28.5 -18.867188 28.101562 -20.476562 27.3125 -21.75 C 26.519531 -23.03125 25.472656 -24 24.171875 -24.65625 C 22.867188 -25.320312 21.472656 -25.65625 19.984375 -25.65625 C 18.867188 -25.65625 17.9375 -25.550781 17.1875 -25.34375 C 16.445312 -25.144531 15.734375 -24.929688 15.046875 -24.703125 C 14.359375 -24.472656 13.554688 -24.359375 12.640625 -24.359375 C 11.460938 -24.359375 10.554688 -24.765625 9.921875 -25.578125 C 9.285156 -26.398438 8.96875 -27.375 8.96875 -28.5 C 8.96875 -29.207031 9.101562 -29.84375 9.375 -30.40625 C 9.65625 -30.96875 10.078125 -31.582031 10.640625 -32.25 L 24.125 -46.5625 L 26.1875 -44.8125 L 7.359375 -44.8125 C 6.128906 -44.8125 5.101562 -45.21875 4.28125 -46.03125 C 3.46875 -46.851562 3.0625 -47.875 3.0625 -49.09375 C 3.0625 -50.269531 3.46875 -51.253906 4.28125 -52.046875 C 5.101562 -52.835938 6.128906 -53.234375 7.359375 -53.234375 L 30.796875 -53.234375 C 32.378906 -53.234375 33.566406 -52.796875 34.359375 -51.921875 C 35.148438 -51.054688 35.546875 -49.960938 35.546875 -48.640625 C 35.546875 -47.972656 35.363281 -47.316406 35 -46.671875 C 34.644531 -46.035156 34.210938 -45.460938 33.703125 -44.953125 L 20.140625 -30.40625 L 18.078125 -33.015625 C 18.640625 -33.265625 19.414062 -33.488281 20.40625 -33.6875 C 21.40625 -33.894531 22.238281 -34 22.90625 -34 C 25.914062 -34 28.53125 -33.21875 30.75 -31.65625 C 32.96875 -30.101562 34.675781 -28.085938 35.875 -25.609375 C 37.082031 -23.140625 37.6875 -20.472656 37.6875 -17.609375 C 37.6875 -13.835938 36.84375 -10.570312 35.15625 -7.8125 C 33.46875 -5.050781 31.09375 -2.929688 28.03125 -1.453125 C 24.96875 0.0234375 21.394531 0.765625 17.3125 0.765625 C 15.414062 0.765625 13.550781 0.535156 11.71875 0.078125 C 9.882812 -0.378906 8.300781 -0.992188 6.96875 -1.765625 C 5.84375 -2.378906 5.085938 -3.054688 4.703125 -3.796875 C 4.328125 -4.535156 4.140625 -5.234375 4.140625 -5.890625 C 4.140625 -7.066406 4.554688 -8.175781 5.390625 -9.21875 C 6.234375 -10.269531 7.296875 -10.796875 8.578125 -10.796875 Z M 8.578125 -10.796875 "/></g></g></g></g></g></svg>