<svg xmlns="http://www.w3.org/2000/svg" xmlns:xlink="http://www.w3.org/1999/xlink" width="172" zoomAndPan="magnify" viewBox="0 0 129 129.750003" height="173" preserveAspectRatio="xMidYMid meet" version="1.0"><defs><g/><clipPath id="b9c371283b"><path d="M 8.269531 8.363281 L 120.554688 8.363281 L 120.554688 120.648438 L 8.269531 120.648438 Z M 8.269531 8.363281 " clip-rule="nonzero"/></clipPath><clipPath id="2fb9189dac"><path d="M 64.410156 8.363281 C 33.40625 8.363281 8.269531 33.5 8.269531 64.503906 C 8.269531 95.511719 33.40625 120.648438 64.410156 120.648438 C 95.417969 120.648438 120.554688 95.511719 120.554688 64.503906 C 120.554688 33.5 95.417969 8.363281 64.410156 8.363281 Z M 64.410156 8.363281 " clip-rule="nonzero"/></clipPath><clipPath id="85bde58dd4"><path d="M 0.269531 0.363281 L 112.554688 0.363281 L 112.554688 112.648438 L 0.269531 112.648438 Z M 0.269531 0.363281 " clip-rule="nonzero"/></clipPath><clipPath id="da0c8b5590"><path d="M 56.410156 0.363281 C 25.40625 0.363281 0.269531 25.5 0.269531 56.503906 C 0.269531 87.511719 25.40625 112.648438 56.410156 112.648438 C 87.417969 112.648438 112.554688 87.511719 112.554688 56.503906 C 112.554688 25.5 87.417969 0.363281 56.410156 0.363281 Z M 56.410156 0.363281 " clip-rule="nonzero"/></clipPath><clipPath id="301096e4e1"><rect x="0" width="113" y="0" height="113"/></clipPath><clipPath id="a7f358cbc7"><rect x="0" width="40" y="0" height="97"/></clipPath></defs><g clip-path="url(#b9c371283b)"><g clip-path="url(#2fb9189dac)"><g transform="matrix(1, 0, 0, 1, 8, 8)"><g clip-path="url(#301096e4e1)"><g clip-path="url(#85bde58dd4)"><g clip-path="url(#da0c8b5590)"><path fill="#ebb02d" d="M 0.269531 0.363281 L 112.554688 0.363281 L 112.554688 112.648438 L 0.269531 112.648438 Z M 0.269531 0.363281 " fill-opacity="1" fill-rule="nonzero"/></g></g></g></g></g></g><g transform="matrix(1, 0, 0, 1, 46, 13)"><g clip-path="url(#a7f358cbc7)"><g fill="#ffffff" fill-opacity="1"><g transform="translate(3.450176, 77.036986)"><g><path d="M 18.234375 0 C 16.796875 0 15.617188 -0.445312 14.703125 -1.34375 C 13.785156 -2.238281 13.328125 -3.347656 13.328125 -4.671875 L 13.328125 -43.28125 L 14.40625 -41.59375 L 8.8125 -37.453125 C 8.09375 -36.890625 7.195312 -36.609375 6.125 -36.609375 C 4.90625 -36.609375 3.832031 -37.066406 2.90625 -37.984375 C 1.988281 -38.910156 1.53125 -40.007812 1.53125 -41.28125 C 1.53125 -42.914062 2.320312 -44.242188 3.90625 -45.265625 L 14.9375 -52.625 C 15.445312 -52.976562 16.019531 -53.226562 16.65625 -53.375 C 17.289062 -53.53125 17.890625 -53.609375 18.453125 -53.609375 C 19.941406 -53.609375 21.117188 -53.160156 21.984375 -52.265625 C 22.847656 -51.378906 23.28125 -50.269531 23.28125 -48.9375 L 23.28125 -4.671875 C 23.28125 -3.347656 22.804688 -2.238281 21.859375 -1.34375 C 20.921875 -0.445312 19.710938 0 18.234375 0 Z M 18.234375 0 "/></g></g></g></g></g></svg>