<svg xmlns="http://www.w3.org/2000/svg" xmlns:xlink="http://www.w3.org/1999/xlink" width="172" zoomAndPan="magnify" viewBox="0 0 129 129.750003" height="173" preserveAspectRatio="xMidYMid meet" version="1.0"><defs><g/><clipPath id="56d8b9051a"><path d="M 8.269531 8.363281 L 120.554688 8.363281 L 120.554688 120.648438 L 8.269531 120.648438 Z M 8.269531 8.363281 " clip-rule="nonzero"/></clipPath><clipPath id="a9bf8aa8db"><path d="M 64.410156 8.363281 C 33.40625 8.363281 8.269531 33.5 8.269531 64.503906 C 8.269531 95.511719 33.40625 120.648438 64.410156 120.648438 C 95.417969 120.648438 120.554688 95.511719 120.554688 64.503906 C 120.554688 33.5 95.417969 8.363281 64.410156 8.363281 Z M 64.410156 8.363281 " clip-rule="nonzero"/></clipPath><clipPath id="4bcc1d0e93"><path d="M 0.269531 0.363281 L 112.554688 0.363281 L 112.554688 112.648438 L 0.269531 112.648438 Z M 0.269531 0.363281 " clip-rule="nonzero"/></clipPath><clipPath id="9771be53b7"><path d="M 56.410156 0.363281 C 25.40625 0.363281 0.269531 25.5 0.269531 56.503906 C 0.269531 87.511719 25.40625 112.648438 56.410156 112.648438 C 87.417969 112.648438 112.554688 87.511719 112.554688 56.503906 C 112.554688 25.5 87.417969 0.363281 56.410156 0.363281 Z M 56.410156 0.363281 " clip-rule="nonzero"/></clipPath><clipPath id="04685b3f18"><rect x="0" width="113" y="0" height="113"/></clipPath><clipPath id="512f61f9eb"><rect x="0" width="52" y="0" height="97"/></clipPath></defs><g clip-path="url(#56d8b9051a)"><g clip-path="url(#a9bf8aa8db)"><g transform="matrix(1, 0, 0, 1, 8, 8)"><g clip-path="url(#04685b3f18)"><g clip-path="url(#4bcc1d0e93)"><g clip-path="url(#9771be53b7)"><path fill="#ebb02d" d="M 0.269531 0.363281 L 112.554688 0.363281 L 112.554688 112.648438 L 0.269531 112.648438 Z M 0.269531 0.363281 " fill-opacity="1" fill-rule="nonzero"/></g></g></g></g></g></g><g transform="matrix(1, 0, 0, 1, 40, 13)"><g clip-path="url(#512f61f9eb)"><g fill="#ffffff" fill-opacity="1"><g transform="translate(2.568628, 77.036986)"><g><path d="M 35.078125 -8.421875 C 36.304688 -8.421875 37.328125 -8.007812 38.140625 -7.1875 C 38.960938 -6.375 39.375 -5.359375 39.375 -4.140625 C 39.375 -2.960938 38.960938 -1.976562 38.140625 -1.1875 C 37.328125 -0.394531 36.304688 0 35.078125 0 L 9.03125 0 C 7.707031 0 6.660156 -0.40625 5.890625 -1.21875 C 5.128906 -2.039062 4.75 -3.085938 4.75 -4.359375 C 4.75 -5.640625 5.207031 -6.765625 6.125 -7.734375 L 22.828125 -25.578125 C 24.710938 -27.617188 26.203125 -29.710938 27.296875 -31.859375 C 28.398438 -34.003906 28.953125 -35.867188 28.953125 -37.453125 C 28.953125 -40.003906 28.210938 -42.054688 26.734375 -43.609375 C 25.253906 -45.171875 23.285156 -45.953125 20.828125 -45.953125 C 19.859375 -45.953125 18.863281 -45.722656 17.84375 -45.265625 C 16.820312 -44.804688 15.835938 -44.164062 14.890625 -43.34375 C 13.953125 -42.53125 13.070312 -41.585938 12.25 -40.515625 C 11.632812 -39.703125 11.019531 -39.191406 10.40625 -38.984375 C 9.800781 -38.785156 9.242188 -38.6875 8.734375 -38.6875 C 7.609375 -38.6875 6.570312 -39.101562 5.625 -39.9375 C 4.6875 -40.78125 4.21875 -41.765625 4.21875 -42.890625 C 4.21875 -43.753906 4.507812 -44.59375 5.09375 -45.40625 C 5.675781 -46.226562 6.40625 -47.078125 7.28125 -47.953125 C 8.550781 -49.222656 9.976562 -50.34375 11.5625 -51.3125 C 13.144531 -52.28125 14.78125 -53.03125 16.46875 -53.5625 C 18.15625 -54.101562 19.789062 -54.375 21.375 -54.375 C 24.789062 -54.375 27.757812 -53.695312 30.28125 -52.34375 C 32.8125 -51 34.765625 -49.085938 36.140625 -46.609375 C 37.523438 -44.128906 38.21875 -41.207031 38.21875 -37.84375 C 38.21875 -35.03125 37.382812 -31.898438 35.71875 -28.453125 C 34.0625 -25.003906 31.832031 -21.773438 29.03125 -18.765625 L 18.6875 -7.734375 L 17.84375 -8.421875 Z M 35.078125 -8.421875 "/></g></g></g></g></g></svg>