<svg xmlns="http://www.w3.org/2000/svg" xmlns:xlink="http://www.w3.org/1999/xlink" width="172" zoomAndPan="magnify" viewBox="0 0 129 129.750003" height="173" preserveAspectRatio="xMidYMid meet" version="1.0"><defs><g/><clipPath id="52c9a643dc"><path d="M 8.269531 8.363281 L 120.554688 8.363281 L 120.554688 120.648438 L 8.269531 120.648438 Z M 8.269531 8.363281 " clip-rule="nonzero"/></clipPath><clipPath id="c490a8a0ac"><path d="M 64.410156 8.363281 C 33.40625 8.363281 8.269531 33.5 8.269531 64.503906 C 8.269531 95.511719 33.40625 120.648438 64.410156 120.648438 C 95.417969 120.648438 120.554688 95.511719 120.554688 64.503906 C 120.554688 33.5 95.417969 8.363281 64.410156 8.363281 Z M 64.410156 8.363281 " clip-rule="nonzero"/></clipPath><clipPath id="ac89c90e70"><path d="M 0.269531 0.363281 L 112.554688 0.363281 L 112.554688 112.648438 L 0.269531 112.648438 Z M 0.269531 0.363281 " clip-rule="nonzero"/></clipPath><clipPath id="f811ea5dc0"><path d="M 56.410156 0.363281 C 25.40625 0.363281 0.269531 25.5 0.269531 56.503906 C 0.269531 87.511719 25.40625 112.648438 56.410156 112.648438 C 87.417969 112.648438 112.554688 87.511719 112.554688 56.503906 C 112.554688 25.5 87.417969 0.363281 56.410156 0.363281 Z M 56.410156 0.363281 " clip-rule="nonzero"/></clipPath><clipPath id="c0259a9243"><rect x="0" width="113" y="0" height="113"/></clipPath><clipPath id="d9500456b5"><rect x="0" width="52" y="0" height="97"/></clipPath></defs><g clip-path="url(#52c9a643dc)"><g clip-path="url(#c490a8a0ac)"><g transform="matrix(1, 0, 0, 1, 8, 8)"><g clip-path="url(#c0259a9243)"><g clip-path="url(#ac89c90e70)"><g clip-path="url(#f811ea5dc0)"><path fill="#ebb02d" d="M 0.269531 0.363281 L 112.554688 0.363281 L 112.554688 112.648438 L 0.269531 112.648438 Z M 0.269531 0.363281 " fill-opacity="1" fill-rule="nonzero"/></g></g></g></g></g></g><g transform="matrix(1, 0, 0, 1, 40, 13)"><g clip-path="url(#d9500456b5)"><g fill="#ffffff" fill-opacity="1"><g transform="translate(1.8705, 77.036986)"><g><path d="M 29.796875 0 C 28.515625 0 27.441406 -0.445312 26.578125 -1.34375 C 25.710938 -2.238281 25.28125 -3.347656 25.28125 -4.671875 L 25.28125 -40.671875 L 26.890625 -40.28125 L 12.109375 -21.984375 L 11.71875 -22.984375 L 38.828125 -22.984375 C 40.054688 -22.984375 41.078125 -22.570312 41.890625 -21.75 C 42.710938 -20.9375 43.125 -19.914062 43.125 -18.6875 C 43.125 -17.507812 42.710938 -16.523438 41.890625 -15.734375 C 41.078125 -14.941406 40.054688 -14.546875 38.828125 -14.546875 L 5.359375 -14.546875 C 4.285156 -14.546875 3.25 -14.976562 2.25 -15.84375 C 1.257812 -16.71875 0.765625 -17.796875 0.765625 -19.078125 C 0.765625 -20.191406 1.148438 -21.210938 1.921875 -22.140625 L 26.125 -51.78125 C 26.53125 -52.34375 27.0625 -52.785156 27.71875 -53.109375 C 28.382812 -53.441406 29.128906 -53.609375 29.953125 -53.609375 C 31.273438 -53.609375 32.359375 -53.160156 33.203125 -52.265625 C 34.046875 -51.378906 34.46875 -50.269531 34.46875 -48.9375 L 34.46875 -4.671875 C 34.46875 -3.347656 34.019531 -2.238281 33.125 -1.34375 C 32.226562 -0.445312 31.117188 0 29.796875 0 Z M 29.796875 0 "/></g></g></g></g></g></svg>